<?xml version="1.0" encoding="utf-8"?>
<!-- Generator: Adobe Illustrator 24.1.2, SVG Export Plug-In . SVG Version: 6.00 Build 0)  -->
<svg version="1.1" id="Capa_1" xmlns="http://www.w3.org/2000/svg" xmlns:xlink="http://www.w3.org/1999/xlink" x="0px" y="0px"
	 viewBox="0 0 514.08 298.08" style="enable-background:new 0 0 514.08 298.08;" xml:space="preserve">
<g>
	<path d="M281.72,73.62c-17.31-32.71-60.08-44.05-91.57-24.28c-1.17,0.74-2.43,1.34-4.35,2.39c0-14.42,0-27.98,0-41.79
		c-8.87,0-17.28,0-26.16,0c-0.13,1.63-0.3,2.77-0.3,3.92c-0.01,30.59-0.03,61.18,0.02,91.76c0.01,3.31,0.16,6.68,0.74,9.93
		c7.58,42.55,52.04,66.13,91.38,48.55C285.85,148.73,299.63,107.47,281.72,73.62z M224.36,143.22
		c-20.98-0.07-38.46-17.62-38.39-38.54c0.07-21.05,17.49-38.3,38.6-38.24c21.23,0.06,38.23,17.18,38.21,38.46
		C262.75,126.02,245.44,143.29,224.36,143.22z"/>
	<path d="M137.46,91.38c-7.67-34.34-37.9-55.35-72.88-51.01c-31.94,3.96-61.81,34.16-55,75.29c7.64,46.2,58.94,68.81,98.82,44.37
		c1.01-0.62,2.13-1.06,3.87-1.92c0,4.42,0,8.01,0,11.82c8.86,0,17.28,0,26.25,0c0.14-1.39,0.31-2.36,0.31-3.32
		c0.01-21.45,0.07-42.91-0.05-64.36C138.76,98.61,138.25,94.92,137.46,91.38z M73.51,143.22c-21.07-0.15-38.21-17.53-38.1-38.66
		c0.11-21.23,17.3-38.21,38.56-38.11c21.28,0.1,38.03,17.11,37.99,38.58C111.93,126.22,94.67,143.37,73.51,143.22z"/>
	<path d="M498.92,100.81c-1.94-40.52-40.47-68.89-79.8-59.25c-8.04,1.97-15.6,5.88-23.73,9.03c0-3.28,0-7,0-10.85
		c-8.99,0-17.43,0-26.36,0c0,43.58,0,86.72,0,130.14c8.86,0,17.4,0,26.47,0c0-2.05,0-3.84,0-5.62c0-19.29-0.07-38.58,0.06-57.86
		c0.03-3.78,0.42-7.67,1.35-11.33c4.77-18.6,22.84-30.72,41.95-28.38c18.75,2.29,33.25,18.38,33.41,37.47
		c0.17,20.12,0.04,40.24,0.04,60.36c0,1.75,0,3.51,0,5.33c9.31,0,17.86,0,26.4,0c0.22-0.77,0.46-1.23,0.46-1.7
		C499.17,145.7,499.99,123.21,498.92,100.81z"/>
	<path d="M339.18,39.82c-8.81,0-17.37,0-26.23,0c0,43.6,0,86.82,0,129.97c9,0,17.55,0,26.23,0
		C339.18,126.31,339.18,83.2,339.18,39.82z"/>
	<path d="M468.94,222.26c-5.81-8.76-5.97-8.77-13.37-1.2c-0.27,0.28-0.72,0.38-1.72,0.87c1.09-3.89,2.22-7.17,2.86-10.54
		c0.24-1.29-0.62-2.78-0.98-4.18c-1.25,0.96-2.66,1.77-3.7,2.92c-1.22,1.35-1.79,3.75-3.22,4.38c-8.52,3.75-17.21,7.12-25.12,10.33
		c0.47-3.96,1.33-9.33,1.68-14.74c0.21-3.17-1.79-5.15-4.68-2.99c-4,2.99-8.35,4.68-12.99,6.38c-11.95,4.36-23.55,9.68-35.47,14.16
		c-2.96,1.11-6.58,0.48-9.9,0.64c0.46-3.48,0.92-6.95,1.37-10.43c0.31-2.36,1.69-5.96,0.68-6.85c-2.85-2.52-3.85,1.46-5.62,2.82
		c-0.13,0.1-0.29,0.16-0.44,0.23c-10.29,5.21-20.59,10.43-30.96,15.68c-9.55-11.18-8.93-19.53,2.8-23.14
		c-1.22,2.37-2.47,4.12-3.01,6.07c-0.35,1.26,0.34,2.82,0.56,4.24c1.4-0.74,3.44-1.14,4.06-2.29c1.06-1.97,1.49-4.4,1.72-6.68
		c0.42-4.35-1.76-6.19-5.7-4.42c-5.38,2.42-10.19,5.65-11.2,12.31c-0.19,1.25-1.24,2.76-2.33,3.43c-5.37,3.29-10.77,6.58-16.41,9.34
		c-2.57,1.26-5.81,1.98-8.6,1.68c-1.6-0.17-3.36-2.7-4.16-4.55c-0.35-0.79,1.33-2.8,2.47-3.84c2.18-1.99,5.13-3.32,6.79-5.62
		c1.04-1.44,0.3-4.16,0.36-6.3c-1.99,0.19-4.9-0.38-5.78,0.71c-2.74,3.35-5.69,7.08-6.74,11.13c-1.64,6.32,3.12,11.04,9.69,10.38
		c3.08-0.31,6.23-1.2,9.07-2.46c5.71-2.55,11.23-5.54,16.82-8.34c2.77,3.54,5.49,7.01,8.47,10.83c-1.77,1.44-3.33,2.41-4.52,3.72
		c-4.32,4.78-8.77,9.47-12.65,14.59c-2.41,3.18-3.1,7.43,0.02,10.53c3.16,3.15,7.29,2.08,10.63-0.07
		c7.78-5.03,12.15-12.7,10.43-21.57c-1.35-6.99,2.27-8.72,6.71-10.96c4.3-2.17,8.62-4.3,12.98-6.33c2.28-1.06,4.66-1.89,7.53-3.04
		c-0.26,1.87-0.44,2.83-0.52,3.8c-0.55,6.77,2.49,9.67,9.15,8.61c2.62-0.42,5.25-0.92,7.78-1.71c7.69-2.41,15.33-4.97,23.49-7.64
		c-0.83,1.59-1.7,2.65-1.91,3.83c-0.26,1.46-0.54,3.78,0.22,4.35c0.99,0.74,3.18,0.56,4.51-0.02c1.77-0.77,3.26-2.24,4.78-3.52
		c3.44-2.88,6.82-5.83,10.68-9.13c-0.14-0.05,1.07,0.4,1.32,0.49c1.48-3.25,2.74-6.03,4-8.8c0.71,0.31,1.42,0.62,2.13,0.93
		c-1.76,9.17-3.35,18.19-8.24,26.67c-6.27,10.89-11.43,22.43-16.73,33.86c-1.5,3.24-2.18,7-2.46,10.58
		c-0.14,1.76,1.47,3.66,2.29,5.5c1.4-1.03,3.09-1.83,4.14-3.13c1.33-1.66,2.41-3.63,3.15-5.63c4.77-12.9,10.37-25.6,13.84-38.85
		c3.1-11.85,20.34-21.91,30.85-21.18c-1.37,5.94-2.73,11.84-4.1,17.74c0.41,0.32,0.83,0.65,1.24,0.97
		c7.57-3.19,8.86-13.64,16.82-16.39c7.8,9.93,11.23,11.43,19.43,8.62c7.27-2.49,14.36-8.12,14.33-11.55
		c-4.7,2.89-9.2,6.02-14.01,8.52C477.35,229.24,472.64,227.83,468.94,222.26z M316.5,258.01c-1.59,0.62-4.1,0.53-5.39-0.37
		c-0.78-0.55-0.5-3.46,0.1-5c2.15-5.54,10.09-13.92,15.91-17.26C329.75,243.48,324.55,254.88,316.5,258.01z M401.2,282.05
		c-0.82-0.32-1.64-0.64-2.47-0.96c4.1-10.27,8.2-20.54,12.3-30.81c0.68,0.26,1.35,0.53,2.03,0.79
		C409.11,261.39,405.15,271.72,401.2,282.05z"/>
	<path d="M258.62,258.53c1.07-7.37,2.31-14.72,3.75-22.03c3.16-16.04,12.69-28.92,20.87-42.56c4.38-7.3,7.26-15.54,10.41-23.51
		c0.62-1.56-0.62-3.85-1-5.81c-1.74,1.04-4.19,1.65-5.11,3.18c-3.58,5.94-7.07,11.99-9.85,18.33c-3.48,7.94-6.24,16.21-9.35,24.45
		c-6.06-4.2-10.68-4.32-14.76,1.08c-3.38,4.47-5.42,10.09-7.33,15.45c-0.56,1.56,0.85,4.72,2.34,5.81c1,0.73,4.11-0.38,5.6-1.54
		c3.48-2.7,6.55-5.93,10.46-9.56c-0.54,1.94-0.89,3.01-1.13,4.11c-2.13,10.03-4.81,20-6.08,30.15c-0.57,4.58,1.5,9.56,2.81,14.24
		c0.31,1.11,2.4,1.72,3.68,2.56c0.4-0.65,0.81-1.3,1.21-1.95C258.52,268.91,257.83,263.94,258.62,258.53z M290.29,168.03
		c0.56,0.28,1.12,0.55,1.68,0.83c-5.22,10.37-10.44,20.73-15.66,31.1C279.16,188.49,282.29,177.06,290.29,168.03z M251.65,230.83
		c-0.59-0.44-1.18-0.89-1.77-1.33c1.27-7.3,4.71-13.31,11.26-17.3c0.92-0.56,2.47-0.45,3.58-0.14c0.45,0.13,1.02,2.03,0.69,2.44
		C260.91,220.02,256.26,225.41,251.65,230.83z"/>
	<path d="M370.63,200.39c-1.47-1.33-2.31-2.1-3.15-2.86c-0.96,1.19-2.16,2.28-2.74,3.63c-0.2,0.47,1.14,1.6,1.78,2.42
		C367.67,202.69,368.83,201.79,370.63,200.39z"/>
</g>
</svg>
